<?xml version="1.0" encoding="UTF-8" standalone="no"?>
<!DOCTYPE svg PUBLIC "-//W3C//DTD SVG 1.1//EN" "http://www.w3.org/Graphics/SVG/1.1/DTD/svg11.dtd">
<svg width="100%" height="100%" viewBox="0 0 1000 1000" version="1.1" xmlns="http://www.w3.org/2000/svg" xmlns:xlink="http://www.w3.org/1999/xlink" xml:space="preserve" xmlns:serif="http://www.serif.com/" style="fill-rule:evenodd;clip-rule:evenodd;stroke-linejoin:round;stroke-miterlimit:2;">
    <g transform="matrix(1,0,0,1,-1050,0)">
        <rect id="Artboard2" x="1050" y="0" width="1000" height="1000" style="fill:none;"/>
        <g id="Artboard21" serif:id="Artboard2">
            <g transform="matrix(0.777745,0,0,0.777745,1015.990355,116.178268)">
                <path d="M223.603,790.261L223.603,196.751L658.577,196.751L658.577,328.997L385.722,328.997L385.722,426.985L687.702,426.985L687.702,555.247L385.722,555.247L385.722,658.016L657.382,658.016L657.382,790.261L223.603,790.261Z" style="fill:white;fill-rule:nonzero;"/>
                <g transform="matrix(1,0,0,1,-102.861543,0)">
                    <path d="M791.619,196.751L954.137,196.751C1015.214,196.751 1068.059,208.701 1112.672,232.601C1157.285,256.501 1191.74,290.624 1216.038,334.971C1240.336,379.319 1252.485,432.296 1252.485,493.905C1252.485,555.247 1240.403,608.092 1216.237,652.439C1192.072,696.786 1157.882,730.844 1113.668,754.611C1069.453,778.377 1017.073,790.261 956.527,790.261L794.009,790.261L794.009,653.236L949.756,653.236C980.029,653.236 1005.588,648.323 1026.434,638.498C1047.28,628.672 1063.014,612.142 1073.636,588.906C1084.258,565.67 1089.569,534.003 1089.569,493.905C1089.569,453.541 1084.125,421.741 1073.237,398.505C1062.35,375.269 1046.151,358.672 1024.641,348.714C1003.132,338.756 976.576,333.776 944.976,333.776L791.619,333.776L791.619,196.751Z" style="fill:white;fill-rule:nonzero;"/>
                </g>
            </g>
        </g>
    </g>
</svg>
