<svg version="1.1" id="Layer_1" xmlns="http://www.w3.org/2000/svg" xmlns:xlink="http://www.w3.org/1999/xlink" x="0px" y="0px"
	 width="100%" viewBox="0 0 800 198" enable-background="new 0 0 800 198" xml:space="preserve">
<path fill="#000000" opacity="1.000000" stroke="none" 
	d="
M523.000000,199.000000 
	C348.666687,199.000000 174.833374,199.000000 1.000047,199.000000 
	C1.000031,133.000031 1.000031,67.000061 1.000015,1.000064 
	C267.666595,1.000043 534.333191,1.000043 800.999878,1.000021 
	C800.999878,66.999931 800.999878,132.999863 800.999939,198.999908 
	C708.500000,199.000000 616.000000,199.000000 523.000000,199.000000 
M428.909485,149.973007 
	C442.208221,149.981995 455.507965,150.096939 468.805359,149.967819 
	C480.275940,149.856461 491.721252,149.417145 502.844147,146.026062 
	C519.843079,140.843521 531.895142,130.061295 538.861511,113.843079 
	C541.184387,108.435432 542.320007,102.517838 544.713501,97.314651 
	C545.479065,103.656639 545.663940,110.136208 547.127441,116.312836 
	C550.495850,130.529465 558.978638,140.754623 572.458313,146.859528 
	C582.117859,151.234344 592.265198,151.536575 602.470215,150.934784 
	C620.717468,149.858765 635.334839,142.789062 642.993774,124.983627 
	C643.368896,124.111465 644.243103,123.453949 645.655212,121.787239 
	C646.428772,134.175705 650.003296,143.983353 661.113159,147.790665 
	C677.767151,153.497955 693.917053,153.874512 707.070129,136.752747 
	C707.070129,142.122543 707.070129,145.971436 707.070129,149.758224 
	C718.668823,149.758224 729.603943,149.758224 741.000000,149.758224 
	C741.000000,147.735184 741.000000,145.946777 741.000000,144.158386 
	C741.000000,123.828812 740.938904,103.498993 741.022705,83.169762 
	C741.074036,70.737114 735.267456,61.834412 724.529236,56.279766 
	C709.381042,48.443958 693.348938,48.303802 677.063843,51.930210 
	C661.681702,55.355530 652.405579,64.829224 648.699402,80.902603 
	C651.180786,81.301910 653.338318,81.773323 655.520874,81.977776 
	C663.039795,82.682129 670.560181,83.439529 678.097961,83.817833 
	C679.626831,83.894554 681.863220,82.824600 682.697876,81.568604 
	C686.570984,75.739792 692.708435,73.230957 699.191467,76.148827 
	C701.530273,77.201431 704.308533,80.011360 704.541870,82.262352 
	C704.790100,84.656998 702.704346,87.600914 699.092041,88.085182 
	C690.203613,89.276756 681.245789,90.225296 672.494873,92.104759 
	C658.626221,95.083359 649.789856,100.417267 646.270447,115.452492 
	C645.760132,117.632576 645.480896,119.866768 645.057129,122.290901 
	C642.731812,121.213806 641.480225,120.245483 640.125793,120.069893 
	C631.520813,118.954247 622.898621,117.959175 614.265808,117.085297 
	C613.203979,116.977821 611.467712,117.498154 611.022583,118.282784 
	C607.211609,124.999588 601.048584,125.060638 594.390442,125.150146 
	C588.552307,125.228638 579.817200,116.490906 581.762390,108.751678 
	C602.695374,108.751678 623.759888,108.751678 646.223083,108.751678 
	C644.747131,99.178825 643.992615,90.162094 641.859436,81.484276 
	C639.140625,70.423882 632.484253,61.714058 622.382935,56.169613 
	C610.050537,49.400532 596.749512,48.408169 583.181641,51.035149 
	C565.013733,54.552765 553.052795,65.120148 547.907104,83.115189 
	C546.772522,87.082695 545.338806,90.964645 544.006897,93.972618 
	C543.501892,82.481987 544.910889,70.706360 540.841614,59.687683 
	C538.226624,52.606926 535.028870,45.415630 530.548218,39.429703 
	C524.555603,31.423737 515.928589,26.092594 506.375763,22.905201 
	C497.146820,19.825859 487.801849,16.966948 477.883636,16.990551 
	C462.737396,17.026592 447.590973,17.000002 432.444641,17.000004 
	C430.695648,17.000004 428.946686,17.000006 427.000000,17.000006 
	C427.000000,22.721340 426.994049,27.703556 427.000977,32.685757 
	C427.054779,71.463470 427.111053,110.241180 427.118256,149.522232 
	C427.405121,149.625946 427.691986,149.729660 428.909485,149.973007 
M127.010307,98.475662 
	C116.659691,105.236130 115.573326,116.014954 115.566093,127.261848 
	C115.095207,127.146873 114.624313,127.031898 114.153419,126.916924 
	C114.153419,124.399864 114.153419,121.882805 114.153419,118.988945 
	C93.876411,118.988945 74.131081,118.988945 54.204357,118.988945 
	C54.204357,111.525826 54.204357,104.455124 54.204357,96.987694 
	C72.476044,96.987694 90.548904,96.987694 108.793037,96.987694 
	C108.793037,87.186539 108.793037,77.782837 108.793037,67.982506 
	C90.518661,67.982506 72.445801,67.982506 54.210136,67.982506 
	C54.210136,60.847244 54.210136,54.109802 54.210136,46.976517 
	C74.154335,46.976517 93.893219,46.976517 113.787704,46.976517 
	C113.787704,36.842171 113.787704,27.105175 113.787704,17.209473 
	C81.508270,17.209473 49.441311,17.209473 17.203953,17.209473 
	C17.203953,61.484192 17.203953,105.549347 17.203953,149.798889 
	C49.474926,149.798889 81.541885,149.798889 113.969025,149.798889 
	C113.969025,142.839371 113.969025,136.068832 113.969025,129.298294 
	C114.529076,128.923859 115.089119,128.549423 115.649170,128.175003 
	C118.441475,136.166092 121.579674,143.754944 129.712296,147.295563 
	C137.891632,150.856491 146.465149,151.863708 155.086548,150.812286 
	C163.783539,149.751663 171.106033,145.525497 176.848541,138.097092 
	C176.848541,141.947510 176.848541,145.797928 176.848541,149.793854 
	C188.475433,149.793854 199.547287,149.793854 211.000000,149.793854 
	C211.000000,147.981384 211.000000,146.352127 211.000000,144.722855 
	C211.000000,124.227203 211.019638,103.731522 210.992706,83.235901 
	C210.976196,70.669548 205.079163,61.706940 194.030670,56.008465 
	C180.362244,48.958706 165.891525,49.032841 151.109604,50.943008 
	C137.651260,52.682140 121.176399,62.635235 118.924149,81.247421 
	C129.873322,82.142815 140.797012,83.036118 151.700409,83.927765 
	C153.445663,76.501015 163.294189,72.900162 169.565399,76.141350 
	C171.778519,77.285172 174.612808,80.022820 174.567581,81.972572 
	C174.520142,84.017822 171.676178,87.189789 169.497025,87.767715 
	C163.278168,89.416985 156.807266,90.397278 150.377625,90.899750 
	C142.164337,91.541611 134.556549,93.629890 127.010307,98.475662 
M311.038330,65.403221 
	C313.363312,71.538658 315.715363,77.663994 318.008392,83.811348 
	C326.065613,105.411934 334.049866,127.039917 342.179688,148.613083 
	C344.564575,154.941589 342.122162,159.030487 335.381226,158.952408 
	C330.670593,158.897842 325.965179,158.397552 321.031830,158.081909 
	C319.272034,166.006683 317.823914,173.765182 315.726685,181.344025 
	C314.922760,184.249268 315.598724,184.670670 318.110840,185.042923 
	C327.818085,186.481308 337.418640,187.670029 347.337952,186.143982 
	C357.128845,184.637680 365.262329,180.754166 370.966888,172.725159 
	C379.917725,160.127121 383.458466,145.089828 388.977509,130.964417 
	C396.607605,111.435799 403.939728,91.790527 411.360718,72.180550 
	C413.976959,65.267120 416.479218,58.310562 419.171112,51.000000 
	C408.482330,51.000000 398.471069,51.425152 388.519684,50.836941 
	C382.758789,50.496426 380.387482,52.319317 378.897644,57.819466 
	C375.169464,71.582863 370.753418,85.159645 366.632721,98.817162 
	C365.195190,103.581833 363.814606,108.363678 362.407959,113.137672 
	C360.995514,111.391640 360.460571,109.763412 360.007324,108.112755 
	C354.995331,89.858681 350.023956,71.593292 344.914062,53.366703 
	C344.647400,52.415428 343.239655,51.119164 342.349121,51.108086 
	C330.288483,50.958061 318.225342,51.007324 305.689178,51.007324 
	C307.620087,55.985229 309.290924,60.292656 311.038330,65.403221 
M229.087814,105.610229 
	C234.546997,107.408089 239.923172,109.539467 245.485214,110.924110 
	C253.439484,112.904282 261.595123,114.091705 269.512543,116.191666 
	C271.326050,116.672668 273.765808,119.579781 273.652252,121.212769 
	C273.535156,122.895905 270.894409,125.283829 268.940247,125.808693 
	C259.765808,128.272858 254.027771,125.540413 248.986465,117.347519 
	C248.304169,116.238708 246.532471,115.046669 245.349152,115.127174 
	C239.519379,115.523766 233.707535,116.258148 227.909698,117.026756 
	C223.228119,117.647385 218.575485,118.486328 213.830200,119.241127 
	C217.115753,130.977783 221.357849,137.485580 227.983536,142.017609 
	C243.203690,152.428345 260.194061,152.689407 277.315155,149.868637 
	C295.150177,146.930237 309.098969,139.079559 311.328552,118.510056 
	C312.042938,111.919044 308.684357,101.764015 303.222382,98.012016 
	C293.450775,91.299591 282.069092,89.925491 270.821716,87.934258 
	C265.637665,87.016479 260.437897,85.774315 255.512619,83.955261 
	C252.298355,82.768135 251.812515,78.534447 254.634201,77.118523 
	C257.746155,75.556969 261.527008,74.572517 264.991730,74.638443 
	C270.922821,74.751305 274.420532,78.900810 276.442749,83.832848 
	C287.462799,82.563873 298.080048,81.341278 308.745850,80.113098 
	C308.172302,77.661057 307.803436,75.643333 307.226196,73.687073 
	C303.072906,59.610359 290.631592,53.133450 277.344727,51.269779 
	C267.552277,49.896255 257.367920,50.411999 247.439621,51.162701 
	C237.213120,51.935951 228.367538,56.249428 221.772369,64.655487 
	C213.175293,75.613167 214.099930,97.291885 229.087814,105.610229 
M785.000000,57.500000 
	C785.000000,44.080189 785.000000,30.660374 785.000000,17.398411 
	C772.247009,17.398411 760.192993,17.398411 748.259216,17.398411 
	C748.259216,61.722214 748.259216,105.647186 748.259216,149.690033 
	C760.572083,149.690033 772.623779,149.690033 785.000000,149.690033 
	C785.000000,119.087486 785.000000,88.793747 785.000000,57.500000 
z"/>
<path fill="#FFFFFF" opacity="1.000000" stroke="none" 
	d="
M127.286011,98.218018 
	C134.556549,93.629890 142.164337,91.541611 150.377625,90.899750 
	C156.807266,90.397278 163.278168,89.416985 169.497025,87.767715 
	C171.676178,87.189789 174.520142,84.017822 174.567581,81.972572 
	C174.612808,80.022820 171.778519,77.285172 169.565399,76.141350 
	C163.294189,72.900162 153.445663,76.501015 151.700409,83.927765 
	C140.797012,83.036118 129.873322,82.142815 118.924149,81.247421 
	C121.176399,62.635235 137.651260,52.682140 151.109604,50.943008 
	C165.891525,49.032841 180.362244,48.958706 194.030670,56.008465 
	C205.079163,61.706940 210.976196,70.669548 210.992706,83.235901 
	C211.019638,103.731522 211.000000,124.227203 211.000000,144.722855 
	C211.000000,146.352127 211.000000,147.981384 211.000000,149.793854 
	C199.547287,149.793854 188.475433,149.793854 176.848541,149.793854 
	C176.848541,145.797928 176.848541,141.947510 176.848541,138.097092 
	C171.106033,145.525497 163.783539,149.751663 155.086548,150.812286 
	C146.465149,151.863708 137.891632,150.856491 129.712296,147.295563 
	C121.579674,143.754944 118.441475,136.166092 115.649170,128.175003 
	C115.089119,128.549423 114.529076,128.923859 113.969025,129.298294 
	C113.969025,136.068832 113.969025,142.839371 113.969025,149.798889 
	C81.541885,149.798889 49.474926,149.798889 17.203953,149.798889 
	C17.203953,105.549347 17.203953,61.484192 17.203953,17.209473 
	C49.441311,17.209473 81.508270,17.209473 113.787704,17.209473 
	C113.787704,27.105175 113.787704,36.842171 113.787704,46.976517 
	C93.893219,46.976517 74.154335,46.976517 54.210136,46.976517 
	C54.210136,54.109802 54.210136,60.847244 54.210136,67.982506 
	C72.445801,67.982506 90.518661,67.982506 108.793037,67.982506 
	C108.793037,77.782837 108.793037,87.186539 108.793037,96.987694 
	C90.548904,96.987694 72.476044,96.987694 54.204357,96.987694 
	C54.204357,104.455124 54.204357,111.525826 54.204357,118.988945 
	C74.131081,118.988945 93.876411,118.988945 114.153419,118.988945 
	C114.153419,121.882805 114.153419,124.399864 114.153419,126.916924 
	C114.624313,127.031898 115.095207,127.146873 115.566093,127.261848 
	C115.573326,116.014954 116.659691,105.236130 127.286011,98.218018 
M171.296570,108.958702 
	C166.439041,109.971146 161.515488,110.745842 156.744629,112.070450 
	C152.851898,113.151253 150.121307,116.169800 150.165817,120.162132 
	C150.208405,123.980324 152.919220,126.434151 156.840256,127.406105 
	C162.402542,128.784897 167.005356,126.716339 171.044937,123.362656 
	C175.441055,119.712952 175.312225,114.459923 174.857574,109.350861 
	C174.824127,108.974998 173.011307,108.757477 171.296570,108.958702 
z"/>
<path fill="#2563EB" opacity="1.000000" stroke="none" 
	d="
M544.042847,94.885986 
	C545.338806,90.964645 546.772522,87.082695 547.907104,83.115189 
	C553.052795,65.120148 565.013733,54.552765 583.181641,51.035149 
	C596.749512,48.408169 610.050537,49.400532 622.382935,56.169613 
	C632.484253,61.714058 639.140625,70.423882 641.859436,81.484276 
	C643.992615,90.162094 644.747131,99.178825 646.223083,108.751678 
	C623.759888,108.751678 602.695374,108.751678 581.762390,108.751678 
	C579.817200,116.490906 588.552307,125.228638 594.390442,125.150146 
	C601.048584,125.060638 607.211609,124.999588 611.022583,118.282784 
	C611.467712,117.498154 613.203979,116.977821 614.265808,117.085297 
	C622.898621,117.959175 631.520813,118.954247 640.125793,120.069893 
	C641.480225,120.245483 642.731812,121.213806 645.057129,122.290901 
	C645.480896,119.866768 645.760132,117.632576 646.270447,115.452492 
	C649.789856,100.417267 658.626221,95.083359 672.494873,92.104759 
	C681.245789,90.225296 690.203613,89.276756 699.092041,88.085182 
	C702.704346,87.600914 704.790100,84.656998 704.541870,82.262352 
	C704.308533,80.011360 701.530273,77.201431 699.191467,76.148827 
	C692.708435,73.230957 686.570984,75.739792 682.697876,81.568604 
	C681.863220,82.824600 679.626831,83.894554 678.097961,83.817833 
	C670.560181,83.439529 663.039795,82.682129 655.520874,81.977776 
	C653.338318,81.773323 651.180786,81.301910 648.699402,80.902603 
	C652.405579,64.829224 661.681702,55.355530 677.063843,51.930210 
	C693.348938,48.303802 709.381042,48.443958 724.529236,56.279766 
	C735.267456,61.834412 741.074036,70.737114 741.022705,83.169762 
	C740.938904,103.498993 741.000000,123.828812 741.000000,144.158386 
	C741.000000,145.946777 741.000000,147.735184 741.000000,149.758224 
	C729.603943,149.758224 718.668823,149.758224 707.070129,149.758224 
	C707.070129,145.971436 707.070129,142.122543 707.070129,136.752747 
	C693.917053,153.874512 677.767151,153.497955 661.113159,147.790665 
	C650.003296,143.983353 646.428772,134.175705 645.655212,121.787239 
	C644.243103,123.453949 643.368896,124.111465 642.993774,124.983627 
	C635.334839,142.789062 620.717468,149.858765 602.470215,150.934784 
	C592.265198,151.536575 582.117859,151.234344 572.458313,146.859528 
	C558.978638,140.754623 550.495850,130.529465 547.127441,116.312836 
	C545.663940,110.136208 545.479065,103.656639 544.359131,96.749352 
	C544.017456,95.751366 544.030151,95.318680 544.042847,94.885986 
M697.947571,109.550835 
	C693.586853,110.710724 688.898804,111.240189 684.989868,113.270058 
	C682.693665,114.462448 680.113770,118.257668 680.431335,120.487679 
	C680.779724,122.933296 683.935059,126.012123 686.529358,126.917320 
	C695.451050,130.030304 708.406128,122.501381 704.384216,108.039223 
	C702.492310,108.389641 700.585693,108.742790 697.947571,109.550835 
M583.024231,83.868027 
	C582.668823,85.458420 582.313354,87.048820 581.904297,88.879028 
	C591.627197,88.879028 600.565979,88.879028 609.525757,88.879028 
	C608.057678,80.487518 605.342285,76.992744 599.615601,76.030830 
	C591.973450,74.747154 587.067932,76.895744 583.024231,83.868027 
z"/>
<path fill="#2563EB" opacity="1.000000" stroke="none" 
	d="
M544.024902,94.429306 
	C544.030151,95.318680 544.017456,95.751366 544.001526,96.508698 
	C542.320007,102.517838 541.184387,108.435432 538.861511,113.843079 
	C531.895142,130.061295 519.843079,140.843521 502.844147,146.026062 
	C491.721252,149.417145 480.275940,149.856461 468.805359,149.967819 
	C455.507965,150.096939 442.208221,149.981995 428.352600,149.727966 
	C427.632904,149.264618 427.423218,149.109940 427.166595,149.018890 
	C427.111053,110.241180 427.054779,71.463470 427.000977,32.685757 
	C426.994049,27.703556 427.000000,22.721340 427.000000,17.000006 
	C428.946686,17.000006 430.695648,17.000004 432.444641,17.000004 
	C447.590973,17.000002 462.737396,17.026592 477.883636,16.990551 
	C487.801849,16.966948 497.146820,19.825859 506.375763,22.905201 
	C515.928589,26.092594 524.555603,31.423737 530.548218,39.429703 
	C535.028870,45.415630 538.226624,52.606926 540.841614,59.687683 
	C544.910889,70.706360 543.501892,82.481987 544.024902,94.429306 
M497.705933,112.974457 
	C500.753052,113.391464 501.199463,111.558144 501.637451,108.802040 
	C502.460571,107.058281 503.379669,105.352722 504.091248,103.564583 
	C508.752106,91.852081 507.591583,79.761124 505.895111,67.775032 
	C505.160217,62.582527 502.358002,58.257633 497.838318,54.866631 
	C487.644867,47.218807 475.937683,48.700409 464.302063,47.886528 
	C464.302063,71.547531 464.302063,94.602829 464.302063,118.166656 
	C470.733521,118.166656 476.868011,118.166656 483.107452,118.759163 
	C483.574371,118.979004 484.041321,119.198845 484.508270,119.418694 
	C484.672485,118.668007 484.836700,117.917328 485.745117,117.028488 
	C486.497650,117.074539 487.250214,117.120598 488.129150,117.807327 
	C492.681091,118.712624 495.940033,116.901947 496.989166,112.989967 
	C496.989166,112.989967 496.910675,112.941849 497.705933,112.974457 
z"/>
<path fill="#FFFFFF" opacity="1.000000" stroke="none" 
	d="
M311.000061,65.001648 
	C309.290924,60.292656 307.620087,55.985229 305.689178,51.007324 
	C318.225342,51.007324 330.288483,50.958061 342.349121,51.108086 
	C343.239655,51.119164 344.647400,52.415428 344.914062,53.366703 
	C350.023956,71.593292 354.995331,89.858681 360.007324,108.112755 
	C360.460571,109.763412 360.995514,111.391640 362.407959,113.137672 
	C363.814606,108.363678 365.195190,103.581833 366.632721,98.817162 
	C370.753418,85.159645 375.169464,71.582863 378.897644,57.819466 
	C380.387482,52.319317 382.758789,50.496426 388.519684,50.836941 
	C398.471069,51.425152 408.482330,51.000000 419.171112,51.000000 
	C416.479218,58.310562 413.976959,65.267120 411.360718,72.180550 
	C403.939728,91.790527 396.607605,111.435799 388.977509,130.964417 
	C383.458466,145.089828 379.917725,160.127121 370.966888,172.725159 
	C365.262329,180.754166 357.128845,184.637680 347.337952,186.143982 
	C337.418640,187.670029 327.818085,186.481308 318.110840,185.042923 
	C315.598724,184.670670 314.922760,184.249268 315.726685,181.344025 
	C317.823914,173.765182 319.272034,166.006683 321.031830,158.081909 
	C325.965179,158.397552 330.670593,158.897842 335.381226,158.952408 
	C342.122162,159.030487 344.564575,154.941589 342.179688,148.613083 
	C334.049866,127.039917 326.065613,105.411934 318.008392,83.811348 
	C315.715363,77.663994 313.363312,71.538658 311.000061,65.001648 
z"/>
<path fill="#FFFFFF" opacity="1.000000" stroke="none" 
	d="
M228.833527,105.330971 
	C214.099930,97.291885 213.175293,75.613167 221.772369,64.655487 
	C228.367538,56.249428 237.213120,51.935951 247.439621,51.162701 
	C257.367920,50.411999 267.552277,49.896255 277.344727,51.269779 
	C290.631592,53.133450 303.072906,59.610359 307.226196,73.687073 
	C307.803436,75.643333 308.172302,77.661057 308.745850,80.113098 
	C298.080048,81.341278 287.462799,82.563873 276.442749,83.832848 
	C274.420532,78.900810 270.922821,74.751305 264.991730,74.638443 
	C261.527008,74.572517 257.746155,75.556969 254.634201,77.118523 
	C251.812515,78.534447 252.298355,82.768135 255.512619,83.955261 
	C260.437897,85.774315 265.637665,87.016479 270.821716,87.934258 
	C282.069092,89.925491 293.450775,91.299591 303.222382,98.012016 
	C308.684357,101.764015 312.042938,111.919044 311.328552,118.510056 
	C309.098969,139.079559 295.150177,146.930237 277.315155,149.868637 
	C260.194061,152.689407 243.203690,152.428345 227.983536,142.017609 
	C221.357849,137.485580 217.115753,130.977783 213.830200,119.241127 
	C218.575485,118.486328 223.228119,117.647385 227.909698,117.026756 
	C233.707535,116.258148 239.519379,115.523766 245.349152,115.127174 
	C246.532471,115.046669 248.304169,116.238708 248.986465,117.347519 
	C254.027771,125.540413 259.765808,128.272858 268.940247,125.808693 
	C270.894409,125.283829 273.535156,122.895905 273.652252,121.212769 
	C273.765808,119.579781 271.326050,116.672668 269.512543,116.191666 
	C261.595123,114.091705 253.439484,112.904282 245.485214,110.924110 
	C239.923172,109.539467 234.546997,107.408089 228.833527,105.330971 
z"/>
<path fill="#2563EB" opacity="1.000000" stroke="none" 
	d="
M785.000000,58.000000 
	C785.000000,88.793747 785.000000,119.087486 785.000000,149.690033 
	C772.623779,149.690033 760.572083,149.690033 748.259216,149.690033 
	C748.259216,105.647186 748.259216,61.722214 748.259216,17.398411 
	C760.192993,17.398411 772.247009,17.398411 785.000000,17.398411 
	C785.000000,30.660374 785.000000,44.080189 785.000000,58.000000 
z"/>
<path fill="#2563EB" opacity="1.000000" stroke="none" 
	d="
M427.142426,149.270569 
	C427.423218,149.109940 427.632904,149.264618 427.887268,149.658142 
	C427.691986,149.729660 427.405121,149.625946 427.142426,149.270569 
z"/>
<path fill="#000000" opacity="1.000000" stroke="none" 
	d="
M171.661148,108.712524 
	C173.011307,108.757477 174.824127,108.974998 174.857574,109.350861 
	C175.312225,114.459923 175.441055,119.712952 171.044937,123.362656 
	C167.005356,126.716339 162.402542,128.784897 156.840256,127.406105 
	C152.919220,126.434151 150.208405,123.980324 150.165817,120.162132 
	C150.121307,116.169800 152.851898,113.151253 156.744629,112.070450 
	C161.515488,110.745842 166.439041,109.971146 171.661148,108.712524 
z"/>
<path fill="#000000" opacity="1.000000" stroke="none" 
	d="
M698.313354,109.323387 
	C700.585693,108.742790 702.492310,108.389641 704.384216,108.039223 
	C708.406128,122.501381 695.451050,130.030304 686.529358,126.917320 
	C683.935059,126.012123 680.779724,122.933296 680.431335,120.487679 
	C680.113770,118.257668 682.693665,114.462448 684.989868,113.270058 
	C688.898804,111.240189 693.586853,110.710724 698.313354,109.323387 
z"/>
<path fill="#000000" opacity="1.000000" stroke="none" 
	d="
M583.193481,83.508789 
	C587.067932,76.895744 591.973450,74.747154 599.615601,76.030830 
	C605.342285,76.992744 608.057678,80.487518 609.525757,88.879028 
	C600.565979,88.879028 591.627197,88.879028 581.904297,88.879028 
	C582.313354,87.048820 582.668823,85.458420 583.193481,83.508789 
z"/>
<path fill="#000000" opacity="1.000000" stroke="none" 
	d="
M483.002533,118.166656 
	C476.868011,118.166656 470.733521,118.166656 464.302063,118.166656 
	C464.302063,94.602829 464.302063,71.547531 464.302063,47.886528 
	C475.937683,48.700409 487.644867,47.218807 497.838318,54.866631 
	C502.358002,58.257633 505.160217,62.582527 505.895111,67.775032 
	C507.591583,79.761124 508.752106,91.852081 504.091248,103.564583 
	C503.379669,105.352722 502.460571,107.058281 500.989532,109.034012 
	C499.197968,110.491272 498.054321,111.716568 496.910675,112.941849 
	C496.910675,112.941849 496.989166,112.989967 496.640930,113.098190 
	C493.529358,114.526497 490.766052,115.846588 488.002747,117.166664 
	C487.250214,117.120598 486.497650,117.074539 485.080505,117.092712 
	C483.944763,117.493507 483.473663,117.830086 483.002533,118.166656 
z"/>
<path fill="#2563EB" opacity="1.000000" stroke="none" 
	d="
M488.065948,117.487000 
	C490.766052,115.846588 493.529358,114.526497 496.617157,113.058762 
	C495.940033,116.901947 492.681091,118.712624 488.065948,117.487000 
z"/>
<path fill="#2563EB" opacity="1.000000" stroke="none" 
	d="
M497.308289,112.958160 
	C498.054321,111.716568 499.197968,110.491272 500.671204,109.216293 
	C501.199463,111.558144 500.753052,113.391464 497.308289,112.958160 
z"/>
<path fill="#2563EB" opacity="1.000000" stroke="none" 
	d="
M483.054993,118.462906 
	C483.473663,117.830086 483.944763,117.493507 484.708405,117.161789 
	C484.836700,117.917328 484.672485,118.668007 484.508240,119.418686 
	C484.041321,119.198845 483.574371,118.979004 483.054993,118.462906 
z"/>
</svg>