<svg version="1.1" id="Layer_1" xmlns="http://www.w3.org/2000/svg" xmlns:xlink="http://www.w3.org/1999/xlink" x="0px" y="0px"
	 width="100%" viewBox="0 0 800 198" enable-background="new 0 0 800 198" xml:space="preserve">
<path fill="#000000" opacity="1.000000" stroke="none" 
	d="
M579.000000,199.000000 
	C386.000031,199.000000 193.500046,199.000000 1.000052,199.000000 
	C1.000034,133.000031 1.000034,67.000061 1.000017,1.000069 
	C267.666595,1.000046 534.333191,1.000046 800.999878,1.000023 
	C800.999878,66.999931 800.999878,132.999863 800.999939,198.999893 
	C727.166687,199.000000 653.333313,199.000000 579.000000,199.000000 
M525.398193,34.875481 
	C519.127991,28.495548 511.694611,24.180510 502.359283,21.872583 
	C501.572937,21.637278 500.786560,21.401972 499.283142,20.793509 
	C493.512360,19.862341 487.756531,18.256374 481.967957,18.128210 
	C465.478760,17.763123 448.976196,18.000023 432.478912,18.000032 
	C430.726471,18.000034 428.974030,18.000034 427.248199,18.000034 
	C427.248199,62.668797 427.248199,106.597878 427.248199,150.438965 
	C427.778931,150.668381 428.070648,150.907379 428.358521,150.902802 
	C446.288879,150.617813 464.219055,150.088806 482.148926,150.101822 
	C491.500275,150.108612 500.399170,148.406235 508.930817,144.909271 
	C527.951538,137.113037 541.648132,118.215202 543.887390,98.076096 
	C544.257812,99.036720 544.830688,99.969948 544.965027,100.962517 
	C545.710449,106.471863 545.799683,112.132339 547.131653,117.487877 
	C550.604370,131.450928 558.868469,141.586884 572.164429,147.702423 
	C581.983582,152.218826 592.269104,152.556122 602.623169,151.920761 
	C620.838501,150.803040 635.479919,143.749939 643.013367,125.846596 
	C643.362488,125.016815 644.337708,124.450493 645.486023,123.293037 
	C647.325684,139.125641 651.469788,145.183365 660.333313,148.442642 
	C677.174927,154.635559 693.635254,155.095490 706.987183,137.961227 
	C706.987183,143.062241 706.987183,146.794571 706.987183,150.707291 
	C718.515015,150.707291 729.565796,150.707291 741.000000,150.707291 
	C741.000000,148.619644 741.000000,146.820572 741.000000,145.021500 
	C741.000000,124.863228 740.913940,104.704445 741.031067,84.546860 
	C741.105652,71.718407 735.190063,62.689575 723.984924,57.032223 
	C708.899963,49.415943 693.052734,49.347279 676.973145,52.957573 
	C661.638489,56.400593 652.302612,65.849747 648.660461,82.237785 
	C659.901001,83.149025 670.749512,84.028488 681.513916,84.901131 
	C685.624023,76.977417 692.044312,73.955208 699.275330,77.161263 
	C701.599243,78.191643 704.341736,81.092819 704.536011,83.341713 
	C704.741455,85.720413 702.669189,88.638687 699.009521,89.108932 
	C690.117981,90.251427 681.174805,91.260437 672.414734,93.097252 
	C657.761047,96.169830 647.511475,103.120239 645.955566,119.964996 
	C645.859497,121.005524 645.226440,121.996460 644.856140,122.976212 
	C642.825439,122.219101 641.240051,121.285248 639.559387,121.059433 
	C631.290344,119.948318 623.006592,118.908913 614.700073,118.150635 
	C613.325134,118.025124 611.363159,119.049721 610.438477,120.173241 
	C606.103333,125.440544 597.935730,127.984764 591.349731,125.782997 
	C585.698364,123.893677 581.327637,117.273285 581.221069,109.824554 
	C602.432312,109.824554 623.643372,109.824554 645.468872,109.824554 
	C644.944824,103.074760 644.627625,96.981018 643.968018,90.924583 
	C642.712952,79.401672 637.889526,69.226837 629.129639,61.921055 
	C614.662781,49.855755 597.428650,48.485699 579.820496,52.757782 
	C562.139038,57.047634 551.688354,69.057938 546.930115,86.386971 
	C546.649963,87.407288 545.036011,88.061378 544.007263,88.132034 
	C544.019104,87.126060 544.030945,86.120087 544.529236,84.916626 
	C544.366943,84.572914 544.204651,84.229195 544.007080,82.971992 
	C544.600586,65.001060 539.429382,49.137241 526.883972,35.483070 
	C526.596863,35.377602 526.309814,35.272137 525.398193,34.875481 
M785.000000,140.470123 
	C785.000000,99.737335 785.000000,59.004547 785.000000,18.402723 
	C772.251953,18.402723 760.202576,18.402723 748.261292,18.402723 
	C748.261292,62.721790 748.261292,106.637688 748.261292,150.683319 
	C760.571655,150.683319 772.618835,150.683319 785.000000,150.683319 
	C785.000000,147.402725 785.000000,144.429764 785.000000,140.470123 
z"/>
<path fill="#2563EB" opacity="1.000000" stroke="none" 
	d="
M544.042786,88.885895 
	C545.036011,88.061378 546.649963,87.407288 546.930115,86.386971 
	C551.688354,69.057938 562.139038,57.047634 579.820496,52.757782 
	C597.428650,48.485699 614.662781,49.855755 629.129639,61.921055 
	C637.889526,69.226837 642.712952,79.401672 643.968018,90.924583 
	C644.627625,96.981018 644.944824,103.074760 645.468872,109.824554 
	C623.643372,109.824554 602.432312,109.824554 581.221069,109.824554 
	C581.327637,117.273285 585.698364,123.893677 591.349731,125.782997 
	C597.935730,127.984764 606.103333,125.440544 610.438477,120.173241 
	C611.363159,119.049721 613.325134,118.025124 614.700073,118.150635 
	C623.006592,118.908913 631.290344,119.948318 639.559387,121.059433 
	C641.240051,121.285248 642.825439,122.219101 644.856140,122.976212 
	C645.226440,121.996460 645.859497,121.005524 645.955566,119.964996 
	C647.511475,103.120239 657.761047,96.169830 672.414734,93.097252 
	C681.174805,91.260437 690.117981,90.251427 699.009521,89.108932 
	C702.669189,88.638687 704.741455,85.720413 704.536011,83.341713 
	C704.341736,81.092819 701.599243,78.191643 699.275330,77.161263 
	C692.044312,73.955208 685.624023,76.977417 681.513916,84.901131 
	C670.749512,84.028488 659.901001,83.149025 648.660461,82.237785 
	C652.302612,65.849747 661.638489,56.400593 676.973145,52.957573 
	C693.052734,49.347279 708.899963,49.415943 723.984924,57.032223 
	C735.190063,62.689575 741.105652,71.718407 741.031067,84.546860 
	C740.913940,104.704445 741.000000,124.863228 741.000000,145.021500 
	C741.000000,146.820572 741.000000,148.619644 741.000000,150.707291 
	C729.565796,150.707291 718.515015,150.707291 706.987183,150.707291 
	C706.987183,146.794571 706.987183,143.062241 706.987183,137.961227 
	C693.635254,155.095490 677.174927,154.635559 660.333313,148.442642 
	C651.469788,145.183365 647.325684,139.125641 645.486023,123.293037 
	C644.337708,124.450493 643.362488,125.016815 643.013367,125.846596 
	C635.479919,143.749939 620.838501,150.803040 602.623169,151.920761 
	C592.269104,152.556122 581.983582,152.218826 572.164429,147.702423 
	C558.868469,141.586884 550.604370,131.450928 547.131653,117.487877 
	C545.799683,112.132339 545.710449,106.471863 544.965027,100.962517 
	C544.830688,99.969948 544.257812,99.036720 543.495300,97.756050 
	C543.439270,96.608917 543.775330,95.781837 544.426636,94.845551 
	C546.546692,92.887268 546.709290,91.286789 544.042297,89.807465 
	C544.042480,89.295471 544.042603,89.090675 544.042786,88.885895 
M704.999634,112.636009 
	C704.844238,111.441231 704.688904,110.246445 704.517090,108.925354 
	C702.469727,109.361855 700.871094,109.629333 699.313293,110.048470 
	C694.492004,111.345581 689.396606,112.110931 684.993591,114.275009 
	C682.700867,115.401863 680.117310,119.250114 680.432007,121.478348 
	C680.777344,123.923744 683.917908,126.918655 686.519043,127.931587 
	C695.905029,131.586670 704.963013,124.268005 704.999634,112.636009 
M588.273315,78.275139 
	C585.041504,81.426567 581.605713,84.476341 582.260559,89.859573 
	C591.501404,89.859573 600.432007,89.859573 610.265991,89.859573 
	C608.848572,86.592232 608.175171,83.239639 606.244263,80.945587 
	C601.528992,75.343582 595.212585,76.513718 588.273315,78.275139 
z"/>
<path fill="#2563EB" opacity="1.000000" stroke="none" 
	d="
M544.111328,94.954758 
	C543.775330,95.781837 543.439270,96.608917 543.072937,97.775131 
	C541.648132,118.215202 527.951538,137.113037 508.930817,144.909271 
	C500.399170,148.406235 491.500275,150.108612 482.148926,150.101822 
	C464.219055,150.088806 446.288879,150.617813 428.358521,150.902802 
	C428.070648,150.907379 427.778931,150.668381 427.248199,150.438965 
	C427.248199,106.597878 427.248199,62.668797 427.248199,18.000034 
	C428.974030,18.000034 430.726471,18.000034 432.478912,18.000032 
	C448.976196,18.000023 465.478760,17.763123 481.967957,18.128210 
	C487.756531,18.256374 493.512360,19.862341 499.849396,21.243183 
	C501.255219,21.868818 502.094818,22.044779 502.934387,22.220739 
	C511.694611,24.180510 519.127991,28.495548 525.835571,35.167488 
	C526.447144,35.648888 526.633911,35.824821 526.833374,35.987293 
	C539.429382,49.137241 544.600586,65.001060 544.018738,83.735901 
	C544.034485,84.704575 544.038635,84.909340 544.042725,85.114113 
	C544.030945,86.120087 544.019104,87.126060 544.025024,88.508957 
	C544.042603,89.090675 544.042480,89.295471 544.024658,90.210083 
	C544.041809,92.264839 544.076599,93.609795 544.111328,94.954758 
M464.024139,50.781925 
	C464.024139,73.387352 464.024139,95.992783 464.024139,118.995651 
	C470.186737,118.995651 475.889099,119.569862 481.433350,118.877701 
	C493.465851,117.375519 501.986115,114.403633 505.508209,99.420212 
	C507.401886,91.364197 507.552521,82.561340 506.683502,74.285118 
	C505.762238,65.511154 502.581329,56.571144 493.285858,53.112617 
	C486.852203,50.718857 479.715271,50.072834 472.827606,49.111053 
	C470.021759,48.719250 467.044037,49.558392 464.024139,50.781925 
z"/>
<path fill="#2563EB" opacity="1.000000" stroke="none" 
	d="
M785.000000,140.963470 
	C785.000000,144.429764 785.000000,147.402725 785.000000,150.683319 
	C772.618835,150.683319 760.571655,150.683319 748.261292,150.683319 
	C748.261292,106.637688 748.261292,62.721790 748.261292,18.402723 
	C760.202576,18.402723 772.251953,18.402723 785.000000,18.402723 
	C785.000000,59.004547 785.000000,99.737335 785.000000,140.963470 
z"/>
<path fill="#2563EB" opacity="1.000000" stroke="none" 
	d="
M502.646851,22.046661 
	C502.094818,22.044779 501.255219,21.868818 500.207947,21.429764 
	C500.786560,21.401972 501.572937,21.637278 502.646851,22.046661 
z"/>
<path fill="#2563EB" opacity="1.000000" stroke="none" 
	d="
M526.858643,35.735184 
	C526.633911,35.824821 526.447144,35.648888 526.147827,35.313080 
	C526.309814,35.272137 526.596863,35.377602 526.858643,35.735184 
z"/>
<path fill="#2563EB" opacity="1.000000" stroke="none" 
	d="
M544.286011,85.015366 
	C544.038635,84.909340 544.034485,84.704575 544.036377,84.192642 
	C544.204651,84.229195 544.366943,84.572914 544.286011,85.015366 
z"/>
<path fill="#000000" opacity="1.000000" stroke="none" 
	d="
M704.999756,113.075897 
	C704.963013,124.268005 695.905029,131.586670 686.519043,127.931587 
	C683.917908,126.918655 680.777344,123.923744 680.432007,121.478348 
	C680.117310,119.250114 682.700867,115.401863 684.993591,114.275009 
	C689.396606,112.110931 694.492004,111.345581 699.313293,110.048470 
	C700.871094,109.629333 702.469727,109.361855 704.517090,108.925354 
	C704.688904,110.246445 704.844238,111.441231 704.999756,113.075897 
z"/>
<path fill="#000000" opacity="1.000000" stroke="none" 
	d="
M588.656982,78.158005 
	C595.212585,76.513718 601.528992,75.343582 606.244263,80.945587 
	C608.175171,83.239639 608.848572,86.592232 610.265991,89.859573 
	C600.432007,89.859573 591.501404,89.859573 582.260559,89.859573 
	C581.605713,84.476341 585.041504,81.426567 588.656982,78.158005 
z"/>
<path fill="#000000" opacity="1.000000" stroke="none" 
	d="
M544.426636,94.845551 
	C544.076599,93.609795 544.041809,92.264839 544.024658,90.517273 
	C546.709290,91.286789 546.546692,92.887268 544.426636,94.845551 
z"/>
<path fill="#000000" opacity="1.000000" stroke="none" 
	d="
M464.084320,50.309700 
	C467.044037,49.558392 470.021759,48.719250 472.827606,49.111053 
	C479.715271,50.072834 486.852203,50.718857 493.285858,53.112617 
	C502.581329,56.571144 505.762238,65.511154 506.683502,74.285118 
	C507.552521,82.561340 507.401886,91.364197 505.508209,99.420212 
	C501.986115,114.403633 493.465851,117.375519 481.433350,118.877701 
	C475.889099,119.569862 470.186737,118.995651 464.024139,118.995651 
	C464.024139,95.992783 464.024139,73.387352 464.084320,50.309700 
z"/>
</svg>