<?xml version="1.0" encoding="UTF-8" standalone="no"?>
<!DOCTYPE svg PUBLIC "-//W3C//DTD SVG 1.1//EN" "http://www.w3.org/Graphics/SVG/1.1/DTD/svg11.dtd">
<svg width="100%" height="100%" viewBox="0 0 1000 1000" version="1.1" xmlns="http://www.w3.org/2000/svg" xmlns:xlink="http://www.w3.org/1999/xlink" xml:space="preserve" xmlns:serif="http://www.serif.com/" style="fill-rule:evenodd;clip-rule:evenodd;stroke-linejoin:round;stroke-miterlimit:2;">
    <g id="Artboard1" transform="matrix(1,0,0,1,0,-1050)">
        <rect x="0" y="1050" width="1000" height="1000" style="fill:none;"/>
        <g transform="matrix(0.595233,0,0,0.595233,16.186413,1299.434854)">
            <path d="M168.601,500L168.601,279.024L330.551,279.024L330.551,328.261L228.961,328.261L228.961,364.745L322.246,364.745L322.246,412.499L228.961,412.499L228.961,450.762L330.106,450.762L330.106,500L168.601,500Z" style="fill-rule:nonzero;"/>
            <path d="M388.48,502.67C377.9,502.67 368.557,500.939 360.45,497.479C352.342,494.018 346.014,488.753 341.466,481.684C336.918,474.615 334.644,465.692 334.644,454.915C334.644,445.819 336.177,438.107 339.242,431.779C342.307,425.451 346.608,420.261 352.144,416.207C357.681,412.153 364.133,409.039 371.498,406.864C378.864,404.689 386.799,403.304 395.302,402.711C404.595,402.019 412.035,401.179 417.622,400.19C423.208,399.201 427.262,397.743 429.783,395.815C432.304,393.887 433.565,391.39 433.565,388.325L433.565,387.732C433.565,384.964 432.798,382.64 431.266,380.762C429.733,378.883 427.608,377.425 424.889,376.387C422.17,375.349 418.882,374.83 415.026,374.83C411.269,374.83 407.883,375.373 404.867,376.461C401.852,377.548 399.38,379.18 397.452,381.355C395.524,383.53 394.263,386.249 393.67,389.512L339.835,385.359C341.219,375.472 344.952,366.648 351.032,358.887C357.113,351.125 365.591,345.02 376.467,340.571C387.342,336.122 400.591,333.897 416.213,333.897C428.077,333.897 438.755,335.232 448.247,337.901C457.739,340.571 465.796,344.353 472.421,349.247C479.045,354.141 484.112,359.9 487.622,366.524C491.132,373.149 492.887,380.416 492.887,388.325L492.887,500L436.679,500L436.679,476.864L435.641,476.864C432.279,483.093 428.275,488.086 423.628,491.843C418.981,495.6 413.741,498.344 407.908,500.074C402.074,501.804 395.598,502.67 388.48,502.67ZM407.759,465.148C412.209,465.148 416.435,464.233 420.44,462.404C424.444,460.575 427.731,457.955 430.302,454.544C432.873,451.133 434.158,446.956 434.158,442.012L434.158,428.665C432.576,429.159 430.92,429.703 429.19,430.296C427.459,430.889 425.581,431.433 423.554,431.927C421.527,432.422 419.451,432.867 417.325,433.262C415.199,433.658 412.901,434.053 410.429,434.449C405.881,435.141 402.148,436.278 399.232,437.86C396.315,439.442 394.14,441.37 392.706,443.644C391.273,445.918 390.556,448.488 390.556,451.356C390.556,454.322 391.297,456.843 392.78,458.919C394.263,460.995 396.29,462.553 398.861,463.591C401.432,464.629 404.398,465.148 407.759,465.148Z" style="fill-rule:nonzero;"/>
            <path d="M580.922,503.263C565.794,503.263 552.447,501.088 540.879,496.737C529.311,492.387 519.968,486.232 512.849,478.273C505.73,470.314 501.281,460.897 499.502,450.021L555.413,443.792C557.094,449.922 560.109,454.668 564.46,458.029C568.81,461.391 574.94,463.072 582.85,463.072C588.683,463.072 593.231,462.182 596.494,460.402C599.757,458.623 601.388,456.052 601.388,452.69C601.388,449.724 599.88,447.327 596.865,445.497C593.849,443.668 589.128,442.161 582.701,440.974L553.337,435.783C536.726,432.817 524.244,427.281 515.889,419.173C507.535,411.066 503.358,400.536 503.358,387.584C503.358,376.214 506.423,366.524 512.552,358.516C518.682,350.507 527.408,344.402 538.729,340.2C550.049,335.998 563.619,333.897 579.439,333.897C594.368,333.897 607.345,335.874 618.369,339.829C629.393,343.784 638.193,349.444 644.767,356.81C651.342,364.176 655.322,373.05 656.706,383.431L603.909,389.364C602.822,384.123 600.152,380.169 595.901,377.499C591.649,374.83 586.656,373.495 580.922,373.495C575.583,373.495 571.208,374.434 567.797,376.313C564.386,378.191 562.68,380.762 562.68,384.025C562.68,386.496 563.768,388.77 565.943,390.847C568.118,392.923 572.172,394.505 578.104,395.592L611.769,401.376C628.577,404.342 641.109,409.434 649.365,416.652C657.621,423.869 661.749,433.559 661.749,445.72C661.749,457.387 658.288,467.521 651.367,476.123C644.446,484.724 634.93,491.398 622.818,496.144C610.706,500.89 596.741,503.263 580.922,503.263Z" style="fill-rule:nonzero;"/>
            <path d="M669.253,558.581L679.486,515.572L690.757,517.204C696.591,518.489 701.584,518.736 705.736,517.945C709.889,517.154 712.929,515.572 714.857,513.199C716.785,510.826 717.403,507.86 716.711,504.301L715.524,500.148L654.422,336.27L716.859,336.27L737.919,409.83C741.082,421.002 743.653,432.273 745.631,443.644C747.608,455.014 749.931,467.274 752.601,480.424L740.292,480.424C742.862,467.274 745.507,454.964 748.226,443.495C750.945,432.026 753.985,420.804 757.347,409.83L780.483,336.27L842.03,336.27L774.105,516.165C770.645,525.459 766.146,533.616 760.609,540.636C755.073,547.656 748.003,553.118 739.402,557.024C730.8,560.929 720.023,562.882 707.071,562.882C700.348,562.882 693.649,562.511 686.975,561.77C680.302,561.028 674.394,559.965 669.253,558.581Z" style="fill-rule:nonzero;"/>
            <path d="M942.878,500L882.369,500L882.369,448.983L940.357,448.983C951.628,448.983 961.144,447.154 968.906,443.495C976.667,439.837 982.525,433.682 986.48,425.031C990.435,416.38 992.412,404.59 992.412,389.66C992.412,374.632 990.385,362.792 986.332,354.141C982.278,345.49 976.247,339.31 968.238,335.603C960.23,331.895 950.343,330.041 938.577,330.041L881.479,330.041L881.479,279.024L941.988,279.024C964.728,279.024 984.404,283.473 1001.014,292.371C1017.624,301.27 1030.453,313.975 1039.499,330.486C1048.546,346.997 1053.069,366.722 1053.069,389.66C1053.069,412.499 1048.571,432.175 1039.573,448.686C1030.576,465.197 1017.847,477.878 1001.385,486.727C984.923,495.576 965.42,500 942.878,500ZM917.814,279.024L917.814,500L857.453,500L857.453,279.024L917.814,279.024Z" style="fill:rgb(37,99,235);fill-rule:nonzero;"/>
            <path d="M1140.956,503.114C1123.554,503.114 1108.501,499.703 1095.796,492.881C1083.091,486.059 1073.279,476.32 1066.358,463.665C1059.437,451.01 1055.976,435.932 1055.976,418.432C1055.976,401.624 1059.437,386.867 1066.358,374.162C1073.279,361.457 1082.993,351.57 1095.5,344.501C1108.007,337.432 1122.714,333.897 1139.621,333.897C1151.98,333.897 1163.226,335.85 1173.361,339.755C1183.495,343.661 1192.171,349.271 1199.388,356.588C1206.606,363.904 1212.167,372.729 1216.073,383.061C1219.978,393.393 1221.931,404.985 1221.931,417.838L1221.931,432.076L1074.218,432.076L1074.218,399.3L1194.198,399.3L1166.464,405.826C1166.464,399.399 1165.476,393.961 1163.498,389.512C1161.521,385.063 1158.604,381.652 1154.748,379.279C1150.892,376.906 1146.097,375.719 1140.362,375.719C1134.727,375.719 1129.981,376.906 1126.125,379.279C1122.269,381.652 1119.328,385.063 1117.301,389.512C1115.274,393.961 1114.261,399.399 1114.261,405.826L1114.261,430.148C1114.261,437.069 1115.422,442.853 1117.746,447.5C1120.069,452.147 1123.332,455.632 1127.534,457.955C1131.736,460.279 1136.704,461.44 1142.439,461.44C1146.492,461.44 1150.2,460.872 1153.562,459.735C1156.923,458.598 1159.791,456.966 1162.163,454.841C1164.536,452.715 1166.316,450.169 1167.502,447.203L1220.003,453.284C1217.432,463.269 1212.563,472.02 1205.395,479.534C1198.227,487.048 1189.205,492.857 1178.329,496.96C1167.453,501.063 1154.995,503.114 1140.956,503.114Z" style="fill:rgb(37,99,235);fill-rule:nonzero;"/>
            <path d="M1278.969,502.67C1268.39,502.67 1259.047,500.939 1250.94,497.479C1242.832,494.018 1236.504,488.753 1231.956,481.684C1227.408,474.615 1225.134,465.692 1225.134,454.915C1225.134,445.819 1226.667,438.107 1229.732,431.779C1232.797,425.451 1237.098,420.261 1242.634,416.207C1248.171,412.153 1254.622,409.039 1261.988,406.864C1269.354,404.689 1277.289,403.304 1285.791,402.711C1295.085,402.019 1302.525,401.179 1308.112,400.19C1313.698,399.201 1317.751,397.743 1320.273,395.815C1322.794,393.887 1324.054,391.39 1324.054,388.325L1324.054,387.732C1324.054,384.964 1323.288,382.64 1321.756,380.762C1320.223,378.883 1318.098,377.425 1315.379,376.387C1312.66,375.349 1309.372,374.83 1305.516,374.83C1301.759,374.83 1298.373,375.373 1295.357,376.461C1292.342,377.548 1289.87,379.18 1287.942,381.355C1286.014,383.53 1284.753,386.249 1284.16,389.512L1230.325,385.359C1231.709,375.472 1235.442,366.648 1241.522,358.887C1247.603,351.125 1256.081,345.02 1266.957,340.571C1277.832,336.122 1291.081,333.897 1306.703,333.897C1318.567,333.897 1329.245,335.232 1338.737,337.901C1348.228,340.571 1356.286,344.353 1362.911,349.247C1369.535,354.141 1374.602,359.9 1378.112,366.524C1381.622,373.149 1383.377,380.416 1383.377,388.325L1383.377,500L1327.169,500L1327.169,476.864L1326.131,476.864C1322.769,483.093 1318.765,488.086 1314.118,491.843C1309.471,495.6 1304.231,498.344 1298.398,500.074C1292.564,501.804 1286.088,502.67 1278.969,502.67ZM1298.249,465.148C1302.698,465.148 1306.925,464.233 1310.929,462.404C1314.934,460.575 1318.221,457.955 1320.792,454.544C1323.362,451.133 1324.648,446.956 1324.648,442.012L1324.648,428.665C1323.066,429.159 1321.41,429.703 1319.679,430.296C1317.949,430.889 1316.071,431.433 1314.044,431.927C1312.017,432.422 1309.941,432.867 1307.815,433.262C1305.689,433.658 1303.39,434.053 1300.919,434.449C1296.371,435.141 1292.638,436.278 1289.722,437.86C1286.805,439.442 1284.63,441.37 1283.196,443.644C1281.762,445.918 1281.046,448.488 1281.046,451.356C1281.046,454.322 1281.787,456.843 1283.27,458.919C1284.753,460.995 1286.78,462.553 1289.351,463.591C1291.921,464.629 1294.888,465.148 1298.249,465.148Z" style="fill:rgb(37,99,235);fill-rule:nonzero;"/>
            <rect x="1397.407" y="279.024" width="59.619" height="220.976" style="fill:rgb(37,99,235);fill-rule:nonzero;"/>
        </g>
    </g>
</svg>
