<svg width="800" height="200" viewBox="0 0 800 200" fill="none" xmlns="http://www.w3.org/2000/svg">
<g clip-path="url(#clip0_3_2)">
<path d="M13.5433 147.051V15.5192H109.941V44.8267H49.4715V66.5431H104.998V94.9679H49.4715V117.743H109.676V147.051H13.5433Z" fill="black"/>
<path d="M144.423 148.641C138.125 148.641 132.564 147.61 127.738 145.551C122.912 143.491 119.145 140.357 116.438 136.149C113.731 131.941 112.378 126.63 112.378 120.215C112.378 114.801 113.29 110.211 115.114 106.444C116.939 102.677 119.499 99.5881 122.794 97.175C126.09 94.762 129.93 92.9084 134.314 91.6138C138.699 90.3191 143.422 89.4947 148.483 89.1418C154.015 88.7299 158.443 88.2299 161.769 87.6412C165.094 87.0525 167.507 86.1846 169.007 85.037C170.508 83.8894 171.259 82.4031 171.259 80.5787V80.2258C171.259 78.5782 170.802 77.1948 169.89 76.077C168.978 74.9585 167.713 74.0907 166.094 73.4728C164.476 72.855 162.519 72.5461 160.224 72.5461C157.987 72.5461 155.972 72.8693 154.177 73.5169C152.382 74.1639 150.911 75.1353 149.763 76.43C148.615 77.7246 147.865 79.343 147.512 81.2853L115.467 78.8133C116.291 72.9282 118.513 67.6759 122.132 63.0563C125.752 58.4361 130.798 54.8022 137.272 52.154C143.745 49.5058 151.631 48.1814 160.93 48.1814C167.992 48.1814 174.348 48.976 179.998 50.5647C185.648 52.154 190.444 54.4052 194.387 57.3182C198.33 60.2313 201.346 63.6592 203.435 67.6021C205.524 71.5455 206.569 75.871 206.569 80.5787V147.051H173.112V133.28H172.494C170.493 136.988 168.11 139.96 165.344 142.196C162.578 144.432 159.459 146.066 155.987 147.095C152.514 148.125 148.659 148.641 144.423 148.641ZM155.898 126.306C158.547 126.306 161.062 125.762 163.446 124.673C165.829 123.584 167.786 122.025 169.316 119.994C170.847 117.964 171.612 115.478 171.612 112.535V104.59C170.67 104.884 169.684 105.208 168.654 105.561C167.624 105.914 166.506 106.238 165.3 106.532C164.093 106.827 162.857 107.092 161.592 107.327C160.327 107.562 158.959 107.798 157.487 108.033C154.78 108.445 152.558 109.122 150.822 110.064C149.086 111.005 147.792 112.153 146.938 113.506C146.085 114.86 145.658 116.39 145.658 118.097C145.658 119.862 146.099 121.363 146.982 122.599C147.865 123.834 149.071 124.762 150.602 125.38C152.132 125.997 153.897 126.306 155.898 126.306Z" fill="black"/>
<path d="M258.97 148.994C249.966 148.994 242.021 147.699 235.135 145.109C228.25 142.52 222.688 138.856 218.451 134.119C214.214 129.381 211.565 123.776 210.506 117.302L243.787 113.595C244.787 117.243 246.582 120.068 249.172 122.069C251.761 124.07 255.41 125.071 260.118 125.071C263.59 125.071 266.297 124.541 268.239 123.481C270.182 122.422 271.152 120.892 271.152 118.891C271.152 117.125 270.255 115.699 268.46 114.609C266.665 113.521 263.855 112.624 260.029 111.917L242.551 108.827C232.663 107.062 225.234 103.767 220.261 98.9405C215.288 94.1149 212.802 87.8471 212.802 80.1377C212.802 73.3699 214.626 67.6021 218.274 62.8354C221.923 58.0682 227.117 54.4343 233.856 51.9332C240.594 49.432 248.671 48.1814 258.088 48.1814C266.974 48.1814 274.698 49.3582 281.26 51.7123C287.822 54.0665 293.06 57.4355 296.973 61.82C300.887 66.2045 303.256 71.4866 304.079 77.6657L272.653 81.1972C272.006 78.0776 270.417 75.724 267.886 74.1347C265.355 72.5461 262.383 71.7514 258.97 71.7514C255.792 71.7514 253.188 72.3103 251.158 73.4288C249.128 74.5466 248.112 76.077 248.112 78.0192C248.112 79.4901 248.76 80.8436 250.054 82.0799C251.349 83.3156 253.762 84.2573 257.293 84.9043L277.331 88.3471C287.336 90.1126 294.796 93.1435 299.71 97.4399C304.624 101.736 307.081 107.504 307.081 114.742C307.081 121.687 305.021 127.719 300.902 132.839C296.782 137.959 291.118 141.931 283.908 144.756C276.699 147.581 268.386 148.994 258.97 148.994Z" fill="black"/>
<path d="M311.548 181.921L317.639 156.32L324.348 157.292C327.82 158.057 330.792 158.204 333.264 157.733C335.736 157.262 337.545 156.32 338.693 154.908C339.84 153.495 340.208 151.73 339.796 149.611L339.09 147.139L302.72 49.5939H339.885L352.42 93.3792C354.303 100.029 355.833 106.738 357.011 113.506C358.187 120.274 359.57 127.572 361.159 135.399H353.833C355.362 127.572 356.937 120.244 358.555 113.418C360.174 106.591 361.983 99.9113 363.984 93.3792L377.756 49.5939H414.39L373.959 156.673C371.9 162.205 369.222 167.061 365.926 171.239C362.631 175.418 358.422 178.669 353.303 180.994C348.183 183.318 341.768 184.481 334.058 184.481C330.057 184.481 326.069 184.26 322.097 183.819C318.125 183.377 314.608 182.745 311.548 181.921Z" fill="black"/>
<path d="M474.419 147.051H438.402V116.684H472.918C479.627 116.684 485.291 115.596 489.911 113.418C494.531 111.24 498.018 107.577 500.372 102.427C502.726 97.278 503.903 90.2602 503.903 81.3734C503.903 72.4282 502.696 65.3806 500.284 60.2313C497.871 55.0819 494.281 51.4034 489.514 49.1969C484.747 46.9897 478.862 45.8862 471.858 45.8862H437.872V15.5192H473.889C487.424 15.5192 499.136 18.1674 509.023 23.4637C518.91 28.7607 526.546 36.3232 531.931 46.151C537.316 55.9789 540.008 67.7199 540.008 81.3734C540.008 94.9679 537.33 106.68 531.975 116.508C526.619 126.335 519.043 133.884 509.244 139.151C499.445 144.418 487.836 147.051 474.419 147.051ZM459.5 15.5192V147.051H423.571V15.5192H459.5Z" fill="#2563EB"/>
<path d="M592.321 148.905C581.963 148.905 573.003 146.875 565.44 142.814C557.878 138.753 552.038 132.956 547.918 125.424C543.798 117.891 541.738 108.916 541.738 98.4994C541.738 88.4947 543.798 79.7109 547.918 72.1484C552.038 64.586 557.82 58.701 565.264 54.4932C572.709 50.2855 581.463 48.1814 591.526 48.1814C598.883 48.1814 605.577 49.3439 611.61 51.6683C617.642 53.9933 622.806 57.3325 627.102 61.6878C631.398 66.0426 634.708 71.2955 637.033 77.4454C639.358 83.5954 640.52 90.4953 640.52 98.1459V106.621H552.596V87.1114H624.012L607.504 90.9959C607.504 87.1703 606.916 83.9335 605.739 81.2853C604.562 78.6371 602.826 76.6067 600.531 75.1943C598.235 73.7818 595.381 73.0752 591.968 73.0752C588.613 73.0752 585.788 73.7818 583.493 75.1943C581.198 76.6067 579.447 78.6371 578.241 81.2853C577.034 83.9335 576.431 87.1703 576.431 90.9959V105.473C576.431 109.593 577.122 113.036 578.506 115.802C579.888 118.568 581.831 120.642 584.332 122.025C586.833 123.408 589.79 124.099 593.204 124.099C595.616 124.099 597.823 123.761 599.825 123.084C601.825 122.408 603.532 121.436 604.944 120.171C606.357 118.906 607.416 117.39 608.122 115.625L639.372 119.244C637.842 125.188 634.944 130.397 630.677 134.869C626.411 139.342 621.04 142.8 614.567 145.242C608.093 147.684 600.678 148.905 592.321 148.905Z" fill="#2563EB"/>
<path d="M674.471 148.641C668.174 148.641 662.613 147.61 657.787 145.551C652.961 143.491 649.194 140.357 646.487 136.149C643.78 131.941 642.427 126.63 642.427 120.215C642.427 114.801 643.339 110.211 645.164 106.444C646.988 102.677 649.548 99.5881 652.843 97.175C656.139 94.762 659.979 92.9084 664.363 91.6138C668.748 90.3191 673.471 89.4947 678.532 89.1418C684.064 88.7299 688.492 88.2299 691.818 87.6412C695.143 87.0525 697.555 86.1846 699.056 85.037C700.557 83.8894 701.307 82.4031 701.307 80.5787V80.2258C701.307 78.5782 700.851 77.1948 699.939 76.077C699.027 74.9585 697.762 74.0907 696.143 73.4728C694.525 72.855 692.568 72.5461 690.273 72.5461C688.036 72.5461 686.021 72.8693 684.226 73.5169C682.431 74.1639 680.96 75.1353 679.812 76.43C678.664 77.7246 677.914 79.343 677.561 81.2853L645.516 78.8133C646.34 72.9282 648.562 67.6759 652.181 63.0563C655.801 58.4361 660.847 54.8022 667.321 52.154C673.794 49.5058 681.68 48.1814 690.979 48.1814C698.041 48.1814 704.397 48.976 710.047 50.5647C715.696 52.154 720.493 54.4052 724.436 57.3182C728.379 60.2313 731.395 63.6592 733.484 67.6021C735.573 71.5455 736.618 75.871 736.618 80.5787V147.051H703.161V133.28H702.543C700.542 136.988 698.159 139.96 695.393 142.196C692.627 144.432 689.508 146.066 686.036 147.095C682.563 148.125 678.708 148.641 674.471 148.641ZM685.947 126.306C688.595 126.306 691.111 125.762 693.495 124.673C695.879 123.584 697.835 122.025 699.365 119.994C700.895 117.964 701.661 115.478 701.661 112.535V104.59C700.719 104.884 699.733 105.208 698.703 105.561C697.673 105.914 696.555 106.238 695.349 106.532C694.142 106.827 692.907 107.092 691.641 107.327C690.376 107.562 689.007 107.798 687.536 108.033C684.829 108.445 682.607 109.122 680.872 110.064C679.135 111.005 677.841 112.153 676.987 113.506C676.133 114.86 675.707 116.39 675.707 118.097C675.707 119.862 676.148 121.363 677.031 122.599C677.914 123.834 679.12 124.762 680.651 125.38C682.18 125.997 683.947 126.306 685.947 126.306Z" fill="#2563EB"/>
<path d="M780.456 15.5192H744.969V147.051H780.456V15.5192Z" fill="#2563EB"/>
</g>
<defs>
<clipPath id="clip0_3_2">
<rect width="1000" height="1000" fill="white" transform="translate(-103 -400)"/>
</clipPath>
</defs>
</svg>
