<svg width="800" height="200" viewBox="0 0 800 200" fill="none" xmlns="http://www.w3.org/2000/svg">
<path d="M16.5435 149.051V17.5192H112.941V46.8267H52.4717V68.5431H107.998V96.9679H52.4717V119.743H112.677V149.051H16.5435Z" fill="white"/>
<path d="M147.423 150.641C141.125 150.641 135.564 149.61 130.738 147.551C125.912 145.491 122.145 142.357 119.438 138.149C116.731 133.941 115.378 128.63 115.378 122.215C115.378 116.801 116.29 112.211 118.115 108.444C119.939 104.677 122.499 101.588 125.794 99.175C129.09 96.762 132.93 94.9084 137.314 93.6138C141.699 92.3191 146.422 91.4947 151.483 91.1418C157.015 90.7299 161.443 90.2299 164.769 89.6412C168.094 89.0525 170.507 88.1846 172.008 87.037C173.508 85.8894 174.259 84.4031 174.259 82.5787V82.2258C174.259 80.5782 173.802 79.1948 172.89 78.077C171.978 76.9585 170.713 76.0907 169.094 75.4728C167.476 74.855 165.519 74.5461 163.224 74.5461C160.987 74.5461 158.972 74.8693 157.177 75.5169C155.382 76.1639 153.911 77.1353 152.763 78.43C151.615 79.7246 150.865 81.343 150.512 83.2853L118.468 80.8133C119.291 74.9282 121.513 69.6759 125.132 65.0563C128.752 60.4361 133.798 56.8022 140.272 54.154C146.745 51.5058 154.632 50.1814 163.93 50.1814C170.992 50.1814 177.348 50.976 182.998 52.5647C188.648 54.154 193.444 56.4052 197.387 59.3182C201.33 62.2313 204.346 65.6592 206.435 69.6021C208.525 73.5455 209.569 77.871 209.569 82.5787V149.051H176.112V135.28H175.494C173.493 138.988 171.11 141.96 168.344 144.196C165.578 146.432 162.459 148.066 158.987 149.095C155.514 150.125 151.66 150.641 147.423 150.641ZM158.898 128.306C161.547 128.306 164.062 127.762 166.446 126.673C168.83 125.584 170.786 124.025 172.316 121.994C173.847 119.964 174.612 117.478 174.612 114.535V106.59C173.67 106.884 172.684 107.208 171.655 107.561C170.624 107.914 169.506 108.238 168.3 108.532C167.093 108.827 165.858 109.092 164.592 109.327C163.327 109.562 161.959 109.798 160.487 110.033C157.78 110.445 155.558 111.122 153.823 112.064C152.086 113.005 150.792 114.153 149.938 115.506C149.085 116.86 148.658 118.39 148.658 120.097C148.658 121.862 149.099 123.363 149.982 124.599C150.865 125.834 152.071 126.762 153.602 127.38C155.132 127.997 156.898 128.306 158.898 128.306Z" fill="white"/>
<path d="M261.971 150.994C252.966 150.994 245.021 149.699 238.136 147.109C231.25 144.52 225.689 140.856 221.451 136.119C217.214 131.381 214.566 125.776 213.507 119.302L246.787 115.595C247.787 119.243 249.582 122.068 252.172 124.069C254.761 126.07 258.41 127.071 263.118 127.071C266.59 127.071 269.297 126.541 271.24 125.481C273.182 124.422 274.153 122.892 274.153 120.891C274.153 119.125 273.255 117.699 271.46 116.609C269.665 115.521 266.855 114.624 263.029 113.917L245.551 110.827C235.664 109.062 228.234 105.767 223.261 100.94C218.288 96.1149 215.802 89.8471 215.802 82.1377C215.802 75.3699 217.626 69.6021 221.274 64.8354C224.923 60.0682 230.117 56.4343 236.856 53.9332C243.594 51.432 251.671 50.1814 261.088 50.1814C269.974 50.1814 277.698 51.3582 284.26 53.7123C290.822 56.0665 296.06 59.4355 299.973 63.82C303.887 68.2045 306.256 73.4866 307.08 79.6657L275.653 83.1972C275.006 80.0776 273.417 77.724 270.887 76.1347C268.356 74.5461 265.384 73.7514 261.971 73.7514C258.793 73.7514 256.188 74.3103 254.158 75.4288C252.128 76.5466 251.112 78.077 251.112 80.0192C251.112 81.4901 251.76 82.8436 253.055 84.0799C254.349 85.3156 256.762 86.2573 260.293 86.9043L280.332 90.3471C290.336 92.1126 297.796 95.1435 302.71 99.4399C307.624 103.736 310.081 109.504 310.081 116.742C310.081 123.687 308.021 129.719 303.902 134.839C299.782 139.959 294.118 143.931 286.908 146.756C279.699 149.581 271.387 150.994 261.971 150.994Z" fill="white"/>
<path d="M314.548 183.921L320.639 158.32L327.348 159.292C330.821 160.057 333.793 160.204 336.264 159.733C338.736 159.262 340.546 158.32 341.693 156.908C342.841 155.495 343.209 153.73 342.797 151.611L342.09 149.139L305.72 51.5939H342.885L355.42 95.3792C357.303 102.029 358.833 108.738 360.011 115.506C361.188 122.274 362.57 129.572 364.16 137.399H356.833C358.363 129.572 359.937 122.244 361.555 115.418C363.174 108.591 364.983 101.911 366.985 95.3792L380.756 51.5939H417.391L376.959 158.673C374.9 164.205 372.222 169.061 368.926 173.239C365.631 177.418 361.423 180.669 356.303 182.994C351.183 185.318 344.768 186.481 337.059 186.481C333.057 186.481 329.069 186.26 325.097 185.819C321.125 185.377 317.608 184.745 314.548 183.921Z" fill="white"/>
<path d="M477.419 149.051H441.402V118.684H475.918C482.627 118.684 488.291 117.596 492.911 115.418C497.531 113.24 501.018 109.577 503.372 104.427C505.726 99.278 506.903 92.2602 506.903 83.3734C506.903 74.4282 505.696 67.3806 503.284 62.2313C500.871 57.0819 497.281 53.4034 492.514 51.1969C487.747 48.9897 481.862 47.8862 474.859 47.8862H440.872V17.5192H476.889C490.425 17.5192 502.136 20.1674 512.023 25.4637C521.91 30.7607 529.546 38.3232 534.931 48.151C540.316 57.9789 543.008 69.7199 543.008 83.3734C543.008 96.9679 540.331 108.68 534.975 118.508C529.619 128.335 522.043 135.884 512.244 141.151C502.445 146.418 490.836 149.051 477.419 149.051ZM462.5 17.5192V149.051H426.571V17.5192H462.5Z" fill="#2563EB"/>
<path d="M595.321 150.905C584.963 150.905 576.003 148.875 568.44 144.814C560.878 140.753 555.038 134.956 550.918 127.424C546.798 119.891 544.738 110.916 544.738 100.499C544.738 90.4947 546.798 81.7109 550.918 74.1484C555.038 66.586 560.82 60.701 568.264 56.4932C575.709 52.2855 584.463 50.1814 594.527 50.1814C601.883 50.1814 608.577 51.3439 614.61 53.6683C620.642 55.9933 625.806 59.3325 630.102 63.6878C634.398 68.0426 637.708 73.2955 640.033 79.4454C642.358 85.5954 643.52 92.4953 643.52 100.146V108.621H555.597V89.1114H627.013L610.504 92.9959C610.504 89.1703 609.916 85.9335 608.739 83.2853C607.562 80.6371 605.826 78.6067 603.531 77.1943C601.235 75.7818 598.381 75.0752 594.968 75.0752C591.614 75.0752 588.789 75.7818 586.493 77.1943C584.198 78.6067 582.448 80.6371 581.241 83.2853C580.034 85.9335 579.431 89.1703 579.431 92.9959V107.473C579.431 111.593 580.123 115.036 581.506 117.802C582.889 120.568 584.831 122.642 587.332 124.025C589.833 125.408 592.79 126.099 596.204 126.099C598.616 126.099 600.824 125.761 602.825 125.084C604.825 124.408 606.532 123.436 607.944 122.171C609.357 120.906 610.416 119.39 611.122 117.625L642.373 121.244C640.842 127.188 637.944 132.397 633.677 136.869C629.411 141.342 624.041 144.8 617.567 147.242C611.093 149.684 603.678 150.905 595.321 150.905Z" fill="#2563EB"/>
<path d="M677.471 150.641C671.174 150.641 665.613 149.61 660.787 147.551C655.961 145.491 652.195 142.357 649.487 138.149C646.78 133.941 645.427 128.63 645.427 122.215C645.427 116.801 646.339 112.211 648.164 108.444C649.988 104.677 652.548 101.588 655.843 99.175C659.139 96.762 662.979 94.9084 667.363 93.6138C671.748 92.3191 676.471 91.4947 681.532 91.1418C687.064 90.7299 691.492 90.2299 694.818 89.6412C698.143 89.0525 700.555 88.1846 702.057 87.037C703.557 85.8894 704.307 84.4031 704.307 82.5787V82.2258C704.307 80.5782 703.851 79.1948 702.939 78.077C702.027 76.9585 700.762 76.0907 699.144 75.4728C697.525 74.855 695.568 74.5461 693.273 74.5461C691.036 74.5461 689.021 74.8693 687.226 75.5169C685.431 76.1639 683.96 77.1353 682.812 78.43C681.665 79.7246 680.914 81.343 680.561 83.2853L648.517 80.8133C649.34 74.9282 651.562 69.6759 655.181 65.0563C658.801 60.4361 663.847 56.8022 670.321 54.154C676.794 51.5058 684.681 50.1814 693.979 50.1814C701.041 50.1814 707.397 50.976 713.047 52.5647C718.696 54.154 723.493 56.4052 727.436 59.3182C731.379 62.2313 734.395 65.6592 736.484 69.6021C738.574 73.5455 739.618 77.871 739.618 82.5787V149.051H706.161V135.28H705.543C703.542 138.988 701.159 141.96 698.393 144.196C695.627 146.432 692.508 148.066 689.036 149.095C685.563 150.125 681.709 150.641 677.471 150.641ZM688.947 128.306C691.595 128.306 694.111 127.762 696.495 126.673C698.879 125.584 700.835 124.025 702.366 121.994C703.895 119.964 704.661 117.478 704.661 114.535V106.59C703.719 106.884 702.733 107.208 701.703 107.561C700.673 107.914 699.555 108.238 698.349 108.532C697.142 108.827 695.907 109.092 694.641 109.327C693.376 109.562 692.007 109.798 690.536 110.033C687.829 110.445 685.607 111.122 683.872 112.064C682.135 113.005 680.841 114.153 679.987 115.506C679.134 116.86 678.707 118.39 678.707 120.097C678.707 121.862 679.148 123.363 680.031 124.599C680.914 125.834 682.12 126.762 683.651 127.38C685.181 127.997 686.947 128.306 688.947 128.306Z" fill="#2563EB"/>
<path d="M783.457 17.5192H747.969V149.051H783.457V17.5192Z" fill="#2563EB"/>
</svg>
